<svg width="87" height="87" viewBox="0 0 87 87" fill="none" xmlns="http://www.w3.org/2000/svg">
<g clip-path="url(#clip0_44_903)">
<path d="M86.9993 43.5031C86.9993 52.1074 84.4478 60.5185 79.6673 67.6727C74.8869 74.8269 68.0922 80.4028 60.1427 83.6953C52.1932 86.9877 43.4459 87.8489 35.007 86.1698C26.568 84.4907 18.8165 80.3468 12.7328 74.2622C6.649 68.1776 2.50622 60.4255 0.828335 51.9863C-0.849548 43.5472 0.012834 34.8 3.30642 26.8509C6.60001 18.9019 12.1769 12.108 19.3317 7.32861C26.4866 2.54916 34.898 -0.00121367 43.5024 4.33278e-07C49.215 3.76392e-07 54.8717 1.12528 60.1494 3.31159C65.4271 5.4979 70.2224 8.70241 74.2615 12.7421C78.3007 16.7818 81.5045 21.5776 83.6901 26.8556C85.8756 32.1336 87.0001 37.7905 86.9993 43.5031Z" fill="white"/>
<path d="M55.4174 63.5941C55.2935 63.7075 55.1954 63.8462 55.1297 64.0008C55.064 64.1554 55.0324 64.3224 55.0368 64.4903C55.0332 64.7451 55.1153 64.9938 55.2701 65.1962C55.4059 65.3673 55.5835 65.5005 55.7857 65.5829C55.4358 65.718 55.2578 65.896 55.2578 66.1293C55.2613 66.2337 55.2975 66.3343 55.3614 66.417C55.4253 66.4996 55.5137 66.56 55.6138 66.5896C55.0921 66.7247 54.8281 66.9948 54.8281 67.4061C54.8289 67.5478 54.8674 67.6867 54.9397 67.8087C55.012 67.9306 55.1154 68.031 55.2394 68.0997C55.5747 68.2852 55.9555 68.3725 56.3382 68.3514C56.728 68.3702 57.1152 68.2787 57.4554 68.0874C57.5702 68.0135 57.6672 67.9149 57.7392 67.7988C57.8112 67.6827 57.8565 67.5521 57.8718 67.4163C57.887 67.2806 57.8719 67.1431 57.8275 67.014C57.7831 66.8848 57.7105 66.7671 57.615 66.6694C57.3263 66.4676 56.9784 66.3682 56.6267 66.3871C56.3676 66.3986 56.1084 66.3675 55.8594 66.295C55.8272 66.2795 55.8002 66.2551 55.7817 66.2246C55.7632 66.194 55.7539 66.1588 55.755 66.1231C55.7548 66.0921 55.7619 66.0615 55.7758 66.0337C55.7896 66.006 55.8099 65.9819 55.8348 65.9635C55.9817 65.873 56.144 65.8106 56.3136 65.7794C56.5407 65.7254 56.7625 65.6515 56.9766 65.5584C57.1571 65.4793 57.3121 65.3518 57.4247 65.1901C57.562 64.9881 57.6288 64.7464 57.615 64.5026C57.6052 64.2015 57.4799 63.9158 57.2651 63.7046H57.8789V63.2258H56.4732C56.0879 63.2144 55.712 63.3455 55.4174 63.5941ZM57.1362 67.7559C56.8953 67.8783 56.6265 67.9355 56.3566 67.9217C55.6507 67.9217 55.3069 67.7437 55.3069 67.3815C55.3069 67.0193 55.6814 66.8475 56.4241 66.8475C57.4001 66.8475 57.4001 67.228 57.4001 67.357C57.3969 67.4413 57.3706 67.5231 57.324 67.5934C57.2775 67.6638 57.2125 67.72 57.1362 67.7559ZM56.3013 63.68C56.4089 63.6776 56.5157 63.6977 56.6151 63.7389C56.7145 63.7801 56.8041 63.8416 56.8784 63.9194C56.9556 63.9916 57.0168 64.0791 57.058 64.1764C57.0992 64.2737 57.1196 64.3785 57.1178 64.4842C57.119 64.5906 57.0983 64.6962 57.0572 64.7944C57.016 64.8926 56.9551 64.9813 56.8784 65.055C56.8051 65.1324 56.7164 65.1936 56.6181 65.2349C56.5199 65.2761 56.4141 65.2964 56.3075 65.2944C56.2013 65.2959 56.0961 65.2747 55.9987 65.2324C55.9013 65.1901 55.8141 65.1275 55.7428 65.0489C55.6663 64.9739 55.6062 64.884 55.566 64.7847C55.5259 64.6854 55.5067 64.5789 55.5095 64.4719C55.5069 64.3682 55.5258 64.265 55.5649 64.1689C55.6039 64.0728 55.6624 63.9858 55.7366 63.9133C55.81 63.8381 55.8979 63.7786 55.995 63.7385C56.0921 63.6984 56.1963 63.6785 56.3013 63.68Z" fill="#0067B1"/>
<path d="M60.6539 63.5941C60.4451 63.3676 60.1619 63.2238 59.8559 63.189C59.4937 63.189 59.1316 63.4468 58.7633 63.9747V63.2258H58.2783V66.651H58.7633V64.5394C59.1193 63.9256 59.4508 63.6432 59.7454 63.6432C59.9838 63.6907 60.1996 63.8159 60.3592 63.9992L60.4206 64.0606L60.6969 63.6125L60.6539 63.5941Z" fill="#0067B1"/>
<path d="M62.2988 63.1891C62.0703 63.1862 61.8436 63.2298 61.6325 63.3174C61.4215 63.405 61.2304 63.5347 61.0711 63.6986C60.7483 64.0404 60.5684 64.4929 60.5684 64.9631C60.5684 65.4334 60.7483 65.8858 61.0711 66.2276C61.4029 66.5534 61.8492 66.7359 62.3142 66.7359C62.7791 66.7359 63.2255 66.5534 63.5572 66.2276C63.8734 65.8824 64.0488 65.4313 64.0488 64.9631C64.0488 64.495 63.8734 64.0438 63.5572 63.6986C63.3946 63.5306 63.1987 63.3985 62.9819 63.3107C62.7652 63.223 62.5325 63.1815 62.2988 63.1891ZM62.2988 66.2583C62.134 66.2618 61.9702 66.2309 61.818 66.1675C61.6658 66.104 61.5285 66.0095 61.4149 65.89C61.1933 65.6344 61.0714 65.3075 61.0714 64.9693C61.0714 64.631 61.1933 64.3041 61.4149 64.0485C61.5301 63.931 61.6676 63.8379 61.8195 63.7746C61.9713 63.7113 62.1343 63.6792 62.2988 63.6802C62.4623 63.678 62.6243 63.7103 62.7745 63.7748C62.9246 63.8393 63.0595 63.9346 63.1705 64.0546C63.3945 64.3091 63.5181 64.6364 63.5181 64.9754C63.5181 65.3144 63.3945 65.6417 63.1705 65.8962C63.0592 66.0149 62.9239 66.1085 62.7736 66.171C62.6233 66.2334 62.4615 66.2632 62.2988 66.2583Z" fill="#0067B1"/>
<path d="M66.9704 65.6014C66.8582 65.8006 66.7056 65.9742 66.5223 66.1109C66.3577 66.2106 66.1683 66.2617 65.976 66.2582C65.8621 66.2631 65.7485 66.2438 65.6426 66.2015C65.5368 66.1591 65.4412 66.0948 65.3621 66.0127C65.2028 65.8274 65.1214 65.5876 65.135 65.3436V63.2258H64.6501V65.3252C64.6387 65.5116 64.6648 65.6984 64.727 65.8745C64.7893 66.0506 64.8862 66.2124 65.0122 66.3503C65.1337 66.4692 65.2778 66.5625 65.4359 66.6247C65.5941 66.6869 65.7631 66.7167 65.933 66.7125C66.159 66.7204 66.3832 66.6697 66.5837 66.5651C66.7273 66.4755 66.8541 66.3612 66.9581 66.2275V66.6511H67.4492V63.2258H66.9581L66.9704 65.6014Z" fill="#0067B1"/>
<path d="M70.8619 63.6923C70.7053 63.5253 70.5147 63.3939 70.3028 63.307C70.091 63.2202 69.863 63.1799 69.6342 63.189C69.3158 63.1906 69.0015 63.2619 68.7135 63.3977V63.2258H68.2285V68.3269H68.7503V66.4853C69.0327 66.6186 69.3404 66.6897 69.6526 66.694C69.8825 66.6988 70.1108 66.6547 70.3224 66.5648C70.534 66.4748 70.7242 66.3411 70.8803 66.1723C71.2051 65.8325 71.3817 65.3777 71.3714 64.9078C71.3665 64.4517 71.1837 64.0156 70.8619 63.6923ZM68.7319 63.8826C68.9769 63.7483 69.2505 63.6747 69.5299 63.6678C69.7002 63.664 69.8696 63.6946 70.0279 63.7579C70.1861 63.8212 70.3299 63.9158 70.4506 64.0361C70.5716 64.1614 70.6665 64.3095 70.7297 64.4718C70.793 64.6341 70.8233 64.8073 70.8189 64.9814C70.8254 65.1509 70.7984 65.3201 70.7394 65.4791C70.6805 65.6382 70.5907 65.784 70.4752 65.9083C70.3563 66.0247 70.2151 66.1158 70.0599 66.1759C69.9048 66.2361 69.7391 66.2641 69.5728 66.2582C69.2789 66.2527 68.9905 66.177 68.7319 66.0372V63.8826Z" fill="#0067B1"/>
<path d="M24.2594 44.7431C23.9558 44.7311 23.6534 44.7859 23.3734 44.9036C23.0934 45.0214 22.8426 45.1992 22.6388 45.4244C22.2147 45.9227 21.9953 46.5632 22.025 47.2169C21.9857 47.8867 22.2055 48.546 22.6388 49.0584C22.839 49.2786 23.0831 49.4546 23.3553 49.575C23.6275 49.6954 23.9218 49.7576 24.2195 49.7576C24.5171 49.7576 24.8115 49.6954 25.0837 49.575C25.3559 49.4546 25.5999 49.2786 25.8001 49.0584C26.2209 48.5593 26.4341 47.9177 26.3955 47.266C26.425 46.5974 26.2064 45.9416 25.7817 45.4244C25.594 45.2055 25.3602 45.0308 25.097 44.913C24.8338 44.7952 24.5477 44.7371 24.2594 44.7431Z" fill="#0067B1"/>
<path d="M15.6592 26.3953V60.218H31.9199V26.3953H15.6592ZM27.1994 50.2185C26.8854 50.5755 26.501 50.8639 26.0704 51.0656C25.6397 51.2672 25.1721 51.3779 24.6968 51.3905C24.2214 51.4032 23.7486 51.3177 23.3078 51.1392C22.8671 50.9608 22.4679 50.6933 22.1352 50.3536V51.17H20.2937V37.6654H22.0984V44.2397C22.4075 43.8929 22.7855 43.6145 23.2082 43.4221C23.631 43.2297 24.0893 43.1277 24.5538 43.1225C25.0525 43.1122 25.5474 43.2125 26.0027 43.4163C26.458 43.6201 26.8626 43.9223 27.1872 44.3011C27.8962 45.1011 28.2718 46.1423 28.2368 47.2107C28.2807 48.2987 27.91 49.3627 27.1994 50.1878V50.2185Z" fill="#0067B1"/>
<path d="M54.9453 26.3953V60.218H71.206V26.3953H54.9453ZM64.0241 51.1393H62.2194V37.6347H64.0241V51.1393Z" fill="#0067B1"/>
<path d="M43.3615 44.7429C43.0504 44.7318 42.741 44.7951 42.4592 44.9274C42.1773 45.0598 41.9311 45.2575 41.741 45.5041C41.3668 46.013 41.1783 46.6348 41.2069 47.2658C41.18 47.889 41.3686 48.5025 41.741 49.003C41.9321 49.2477 42.1788 49.4433 42.4606 49.5735C42.7425 49.7038 43.0513 49.7649 43.3615 49.7519C43.6748 49.7637 43.9865 49.7014 44.2713 49.5703C44.556 49.4391 44.8059 49.2426 45.0005 48.9969C45.3813 48.4974 45.5766 47.8811 45.553 47.2535C45.5948 46.5833 45.3747 45.9231 44.9391 45.412C44.7421 45.1906 44.4984 45.0158 44.2256 44.9001C43.9527 44.7844 43.6576 44.7307 43.3615 44.7429Z" fill="#0067B1"/>
<path d="M35.3018 26.3462V60.2181H51.5625V26.3462H35.3018ZM47.2656 50.949C47.2656 51.3235 47.2656 54.6321 47.2287 54.939C47.1919 55.2459 47.1673 55.4669 47.1305 55.6818C47.0131 56.2418 46.753 56.7619 46.3755 57.1918C46.0129 57.6023 45.5625 57.9258 45.0577 58.1384C44.5529 58.3509 44.0067 58.447 43.4597 58.4195C42.5303 58.4554 41.6192 58.1546 40.8939 57.5724C40.5389 57.275 40.2472 56.9093 40.0363 56.497C39.8254 56.0847 39.6996 55.6342 39.6662 55.1723H41.5077C41.55 55.492 41.6679 55.7971 41.8515 56.0623C42.046 56.3067 42.2965 56.5006 42.5817 56.6278C42.867 56.7549 43.1787 56.8115 43.4904 56.7928C44.8041 56.7928 45.467 55.9825 45.467 54.3374V50.2615C45.1549 50.6032 44.7759 50.877 44.3535 51.066C43.9311 51.255 43.4744 51.3552 43.0116 51.3603C42.5182 51.3752 42.0277 51.2792 41.5762 51.0795C41.1247 50.8798 40.7237 50.5814 40.4028 50.2063C39.6968 49.3931 39.326 48.3421 39.3654 47.266C39.3346 46.2187 39.6712 45.1937 40.3169 44.3686C40.6366 43.9596 41.0485 43.6318 41.5189 43.4121C41.9893 43.1923 42.505 43.0868 43.0239 43.1041C43.4887 43.0958 43.9497 43.19 44.374 43.3799C44.7984 43.5698 45.1757 43.8508 45.4793 44.2029V43.3435H47.2656V50.949Z" fill="#0067B1"/>
</g>
<defs>
<clipPath id="clip0_44_903">
<rect width="87" height="87" fill="white"/>
</clipPath>
</defs>
</svg>
