<?xml version="1.0" encoding="utf-8"?>
<!-- Generator: Adobe Illustrator 19.0.0, SVG Export Plug-In . SVG Version: 6.00 Build 0)  -->
<svg version="1.1" id="Layer_1" xmlns="http://www.w3.org/2000/svg" xmlns:xlink="http://www.w3.org/1999/xlink" x="0px" y="0px"
	 viewBox="-3 206.5 603.5 380.5" style="enable-background:new -3 206.5 603.5 380.5;" xml:space="preserve">
<style type="text/css">
	.st0{fill:#FFDB00;}
</style>
<g>
	<polygon class="st0" points="473.4,501.9 467.5,491.9 459.7,491.9 469.9,508 469.9,518.9 476.9,518.9 476.9,508 487.1,491.9 
		479.2,491.9 	"/>
	<path class="st0" d="M424.6,497.6c2.6,0,4.9,1.8,5.8,3.9l6-2.8c-1.8-3.6-5.3-7.2-11.8-7.2c-8.3,0-14.6,5.6-14.6,13.9
		c0,8.3,6.3,14,14.6,14c6.5,0,10-3.8,11.8-7.2l-6-2.8c-0.9,2.1-3.2,3.9-5.8,3.9c-4.4,0-7.5-3.4-7.5-7.8
		C417.1,501,420.2,497.6,424.6,497.6z"/>
	<polygon class="st0" points="375.3,506.8 364.4,491.9 357.2,491.9 357.2,518.9 364.1,518.9 364.1,503.3 375.5,518.9 382.3,518.9 
		382.3,491.9 375.3,491.9 	"/>
	<polygon class="st0" points="309.1,518.9 328.9,518.9 328.9,512.8 316.1,512.8 316.1,508.3 328.6,508.3 328.6,502.2 316.1,502.2 
		316.1,498 328.9,498 328.9,491.9 309.1,491.9 	"/>
	<path class="st0" d="M267.7,509.5h6.1v2.1c-1,0.8-3,1.6-5,1.6c-4.4,0-7.5-3.4-7.5-7.8s3.1-7.8,7.5-7.8c2.6,0,4.7,1.7,5.7,3.4l5.8-3
		c-1.9-3.4-5.5-6.5-11.5-6.5c-8,0-14.6,5.4-14.6,13.9c0,8.6,6.6,14,14.6,14c5.1,0,9-2.1,11.9-5.3v-10.7h-13V509.5z"/>
	<path class="st0" d="M211.7,491.9l-10.2,27h7.9l1.3-3.9h10.6l1.3,3.9h7.9l-10.2-27H211.7z M212.6,509l3.4-10.2l3.4,10.2H212.6z"/>
	<path class="st0" d="M218.6,341.1c-13.6-2-24.4,6.8-32.4,16.8c-2.1,2.7-4.1,5.5-6.1,8.4c0.4-5.6-0.4-10.9-4.7-14.4
		c-3.2-2.6-7.6-4.1-11.5-2.3c-5.1,2.4-7.9,13-10.3,17.6c-4.5,8.7-9.1,17.4-13.7,26.1c-3.3,6.3,5.2,14,12.1,13.9
		c-3,15.1-4.8,27.1-44.3,141.9c-3.1,9.1,15.6,47.1,17.6,35.1c-0.5,2.8,5.2-59.6,41.3-134.2c13.2,10.9,28.2,18,49.8,1.6
		c20.7-15.6,39.3-49.2,36.6-74.2C251.5,360.5,235.7,343.6,218.6,341.1z M174.7,432.2c0.8-2.3,11.7-29.5,23-51.5
		c8.4-16.4,15-18.9,22.5-15.4C251.5,380,204.8,456.9,174.7,432.2z"/>
	<path class="st0" d="M120.2,347c-10-6.5-18.4-8.5-29.6-6.5c-13,2.4-29.6,9.1-42.3,13.4l0,0c15.8-35.3,26-52.4,56.1-76.2
		c2.2-1.7,4.4-3.4,6.6-5.1c-16.4,33-23.6,65.7-16.7,58.3c12.6-28.8,35.6-51.5,36.4-52.3c2.9-2.7,5.9-5.4,8.9-8
		c0.5-0.4,0.8-1,0.8-1.6c0-0.4-0.1-0.7-0.3-1l0,0c-2.7-4.8-5.1-10.4-7.2-16.4c-1.5-4.5-2.7-9-3.5-13.3l0,0c-0.2-1-1-1.7-2.1-1.7
		c-0.2,0-0.4,0-0.6,0.1c-11.1,4.1-24.8,13.6-31.2,18.6c-19.1,14.8-73,73.8-70.8,100.8c0.1,0.8,0.2,1.9,0.4,3
		c0.9,4.5,3.8,10.9,9.4,14.8c12.4,8.7,50.7-10.3,67.8-5.6c3.1,1,5.6,2.9,7.2,5.8c0.7,1.5,1.1,3.3,1.2,5.4c0.3,6.5-9.2,44.9-43.9,77
		c-4.2,3.9-19,16.9-30.4,17c-20.9,0.1-9.9-34.6-6-41c5.3-8.7,2.3-47.2-3.7-35.9c0.7-1.3-3.2,11.6-15.8,32.5
		c-6.5,10.6-13.3,24.4-13.4,38.7c-0.1,22.3,21.9,40.3,43.8,37.3c18.5-2.5,36.3-17.4,49-30c17.3-17.2,30.9-38.4,39.9-61.1
		C139,392,143.1,361.9,120.2,347z"/>
	<path class="st0" d="M581.6,208.7c-2.9,13.9-33.3,91.8-61.7,138.1c-0.9,1.4-41.9-28.3-76,35.7c-3.9,7.4-7.7,16.4-9.7,25.6
		c-0.4,1-0.8,2-1.2,2.9c-3.1,7.5-42.1,37.4-56.2,15.3c25.4-15.8,66.5-46.1,58.1-69.9c-5.2-14.7-19.5-19-39.1-12.1
		c-27.1,9.6-53.7,44.1-51.3,74.4c-14.7,10.1-39.2,24.5-53.5,9.2c25.4-15.8,63.7-47.8,55.3-71.5c-5.2-14.7-19.5-19-39.1-12.1
		c-30.5,10.8-60.5,53.2-49,85.7c13.4,37.9,51,28.5,79.7,14.4c4.2-2.1,8.3-4.4,12.1-7c10.9,21.2,30.5,24.4,55.4,15.5
		c10.8-3.8,20.8-9.7,30.5-17.3c1.8,4.1,4.5,8.2,8.3,12.1c11.4,11.5,28.7,9.6,42.3,1.2c6.7-4.2,12.7-9.5,18.1-15.7
		c-1.4,7.2-2.5,15-0.1,19.5c0.2,0.4,0.5,0.7,1,0.8c3.6,0.3,7.3,0.9,11.1,1.6c2.6,0.5,8.8,2.2,11.7,3h0.1c0.3,0,0.6-0.2,0.8-0.5
		c12.3-25.1,12.8-39.4,49.8-73.1c14.5-13.2-40.9,7.5-56.8,45.6c29.1-115.6,75.6-168.9,77.8-185.2
		C601.1,236.2,583.7,198.7,581.6,208.7z M310.8,365.3c4.1-1.5,7.5,0.8,8.8,4.5c2.8,7.9-15.3,25.5-36.3,38
		C279.2,388,299.1,369.4,310.8,365.3z M396.8,365.3c4.2-1.5,7.5,0.8,8.8,4.5c2.8,7.9-15.3,25.5-36.3,38
		C365.3,388,385.2,369.4,396.8,365.3z M489.6,417.5c-8.4,16.4-16.8,18.5-24.4,15c-31.2-14.6,13.2-89.9,43.3-65.2l2.3,1.8
		C510,371.4,500.9,395.5,489.6,417.5z"/>
</g>
</svg>
